<?xml version="1.0" encoding="UTF-8"?>
<svg width="270px" height="29px" viewBox="0 0 270 29" version="1.1" xmlns="http://www.w3.org/2000/svg" xmlns:xlink="http://www.w3.org/1999/xlink">
    <!-- Generator: Sketch 48.2 (47327) - http://www.bohemiancoding.com/sketch -->
    <title>Logo_white Copy</title>
    <desc>Created with Sketch.</desc>
    <defs></defs>
    <g id="Desktop-HD" stroke="none" stroke-width="1" fill="none" fill-rule="evenodd" transform="translate(-247.000000, -910.000000)">
        <g id="Logo_white-Copy" transform="translate(247.000000, 910.000000)" fill="#FFFFFF">
            <path d="M163.275585,17.4591692 L163.275585,18.0618113 L163.275585,28.1454598 L161.457746,28.1454598 L161.457746,18.0618113 L161.457746,8.5906401 L163.275585,8.5906401 L163.275585,12.3741115 C164.688536,10.4815483 166.816202,9.11190344 169.263259,8.7758651 C170.127158,8.65979077 170.974023,8.67707843 171.779518,8.82031909 L171.779518,10.8775513 C171.000791,10.6454027 170.153927,10.5713127 169.272993,10.6775083 C165.880153,11.0969394 163.339073,14.107197 163.275585,17.4591692 Z M268.362701,19.1795824 L253.275725,19.1795824 C253.709903,23.2431412 257.222814,26.3312428 261.387776,26.3312428 C264.115751,26.3312428 266.520068,24.8790789 267.977746,22.6662576 L269.357551,23.7010479 C267.595683,26.3781665 264.685194,28.12916 261.387776,28.12916 C255.999964,28.12916 251.634231,23.7380929 251.634231,18.3221142 C251.634231,12.9011961 255.744445,8.51259864 260.818332,8.51259864 C265.889786,8.51259864 270,12.9011961 270,18.3221142 C270,18.6110652 269.982965,18.8975465 269.95863,19.1840278 L268.362242,19.1840278 C268.362395,19.1825461 268.362549,19.1810643 268.362701,19.1795824 Z M268.362984,17.4606945 C267.957248,13.3916543 264.734154,10.2216079 260.818332,10.2216079 C256.902511,10.2216079 253.679417,13.3916543 253.273681,17.4606945 L268.362984,17.4606945 Z M155.825458,19.2240364 L140.738474,19.2240364 C141.172073,23.2882044 144.685274,26.3769316 148.850657,26.3769316 C151.576198,26.3769316 153.982949,24.9247677 155.440627,22.7119465 L156.820432,23.7467368 C155.056131,26.4238553 152.148075,28.1748489 148.850657,28.1748489 C143.462846,28.1748489 139.097112,23.7837817 139.097112,18.367803 C139.097112,12.9468849 143.20976,8.55828747 148.281213,8.55828747 C153.352667,8.55828747 157.462881,12.9468849 157.462881,18.367803 C157.462881,18.656754 157.445847,18.9432353 157.423945,19.227247 L155.825123,19.227247 C155.825235,19.2261769 155.825347,19.2251067 155.825458,19.2240364 Z M155.825771,17.5051485 C155.419776,13.4367018 152.198913,10.2672967 148.281213,10.2672967 C144.365788,10.2672967 141.14295,13.4367018 140.736685,17.5051485 L155.825771,17.5051485 Z M102.223457,2.02626642 L103.133593,2.02626642 L103.133593,3.28579636 L103.133593,4.5453263 L102.223457,4.5453263 L101.313321,4.5453263 L101.313321,3.28579636 L101.313321,2.02626642 L102.223457,2.02626642 Z M101.313321,8.55606477 L103.133593,8.55606477 L103.133593,18.0618113 L103.133593,28.1479295 L101.313321,28.1479295 L101.313321,18.0618113 L101.313321,8.55606477 Z M227.945626,2.02626642 L228.855762,2.02626642 L228.855762,3.28579636 L228.855762,4.5453263 L227.945626,4.5453263 L227.037923,4.5453263 L227.037923,3.28579636 L227.037923,2.02626642 L227.945626,2.02626642 Z M227.040357,8.5906401 L228.855762,8.5906401 L228.855762,18.0618113 L228.855762,28.1479295 L227.040357,28.1479295 L227.040357,18.0618113 L227.040357,8.5906401 Z M124.09617,17.3816652 L124.09617,28.1469416 L122.302667,28.1469416 L122.302667,17.1915008 L122.302667,16.9148982 C122.302667,13.2375647 119.50412,10.2591468 116.046089,10.2591468 C112.590492,10.2591468 109.789511,13.2375647 109.789511,16.9148982 L109.789511,17.1915008 L109.789511,28.1568203 L107.974106,28.1568203 L107.974106,17.3816652 L107.974106,17.0087455 C107.974106,12.3410757 111.583015,8.55754657 116.033921,8.55754657 C120.487261,8.55754657 124.09617,12.3410757 124.09617,17.0087455 L124.09617,17.3816652 Z M128.912835,22.8433327 L128.912835,16.2666107 L128.912835,10.265321 L127.528162,10.265321 L126.14349,10.265321 L126.14349,9.41081637 L126.14349,8.55631174 L127.528162,8.55631174 L128.912835,8.55631174 L128.912835,5.12100557 L128.912835,2.02651338 L129.830271,2.02651338 L130.747708,2.02651338 L130.747708,5.12100557 L130.747708,8.55631174 L134.09623,8.55631174 L137.444753,8.55631174 L137.444753,9.41081637 L137.444753,10.265321 L134.09623,10.265321 L130.747708,10.265321 L130.747708,16.1702937 L130.747708,22.6531684 C130.747708,24.041121 131.149239,24.9771246 131.828191,25.5723143 C132.504709,26.1675039 133.458648,26.4144706 134.563466,26.4144706 C135.030702,26.4144706 135.461435,26.3650772 135.909202,26.2564119 C136.359403,26.1477466 136.831506,25.9748699 137.369314,25.7279033 L137.369314,26.6021652 L137.369314,27.4764272 C136.88261,27.7036365 136.408074,27.8740435 135.901902,27.9876481 C135.393296,28.1037225 134.865223,28.1605248 134.264143,28.1605248 C132.786997,28.1605248 131.448562,27.7530298 130.477588,26.8812375 C129.51148,26.0168542 128.912835,24.685704 128.912835,22.8433327 Z M214.456386,22.8290087 L214.456386,16.2671046 L214.456386,10.3003903 L213.071714,10.3003903 L211.689475,10.3003903 L211.689475,9.44588563 L211.689475,8.591381 L213.071714,8.591381 L214.456386,8.591381 L214.456386,5.43267749 L214.456386,2.33571564 L215.373823,2.33571564 L216.291259,2.33571564 L216.291259,5.43267749 L216.291259,8.591381 L219.642215,8.591381 L222.990738,8.591381 L222.990738,9.44588563 L222.990738,10.3003903 L219.642215,10.3003903 L216.291259,10.3003903 L216.291259,16.1707876 L216.291259,22.6388443 C216.291259,24.0243273 216.69279,24.9652702 217.369308,25.5579902 C218.050694,26.1531798 219.004633,26.4001465 220.107017,26.4001465 C220.576687,26.4001465 221.007419,26.3507532 221.455187,26.2445575 C221.905388,26.1334225 222.37019,25.9630155 222.915298,25.7160489 L222.915298,26.5878411 L222.915298,27.4621031 C222.428595,27.6893124 221.954058,27.8597194 221.445453,27.9757937 C220.939281,28.0893984 220.40634,28.1462007 219.807695,28.1462007 C218.330548,28.1462007 216.992113,27.7387058 216.026006,26.8693831 C215.052598,26.0025302 214.456386,24.6713799 214.456386,22.8290087 Z M207.138551,8.51185774 L207.138551,10.220867 L201.969756,10.220867 L201.741005,10.220867 C197.326601,10.220867 193.751762,13.8512768 193.751762,18.3287823 C193.751762,22.8062877 197.326601,26.4366976 201.741005,26.4366976 C204.444645,26.4366976 206.829494,25.0685023 208.275004,22.9841037 L209.640208,23.959622 C207.895375,26.4786819 205.009221,28.1284191 201.741005,28.1284191 C196.399431,28.1284191 192.075067,23.737352 192.075067,18.3213733 C192.075067,12.9004552 196.399431,8.51185774 201.741005,8.51185774 L201.998958,8.51185774 L207.138551,8.51185774 Z M187.096817,20.6055679 L187.096817,19.0842533 L187.096817,17.5629387 C184.042751,17.5629387 183.120447,17.567878 182.624009,17.567878 C182.127571,17.5703477 182.059432,17.575287 180.711263,17.575287 C178.715777,17.575287 177.168059,18.0247663 176.114345,18.805181 C175.063065,19.5855956 174.508223,20.6994152 174.508223,22.0305655 L174.508223,22.0676105 L174.508223,22.1046555 C174.508223,23.4926081 175.153105,24.58914 176.158149,25.337449 C177.168059,26.0882276 178.533263,26.4883136 179.971473,26.4883136 C181.89152,26.4883136 183.672856,25.8906543 184.972355,24.855864 C186.274288,23.8235434 187.096817,22.3491525 187.096817,20.6055679 M172.63928,22.3738491 L172.63928,22.3368041 L172.63928,22.2997591 C172.63928,20.3141472 173.478844,18.760727 174.929221,17.7037097 C176.374732,16.6442227 178.435922,16.0836084 180.871875,16.0836084 L182.806523,16.0836084 L187.111418,16.0836084 C187.111418,14.1523292 186.532241,12.6927562 185.463926,11.709829 C184.395611,10.731841 182.845459,10.2379077 180.905944,10.2379077 C179.764624,10.2379077 178.723078,10.3959664 177.747237,10.6676297 C176.776262,10.9417627 175.86856,11.324561 175.00466,11.7740403 L174.668835,10.9664593 L174.333009,10.161348 C175.372122,9.67482372 176.396633,9.26485907 177.48685,8.97096875 C178.577067,8.68201777 179.728121,8.51408044 181.022753,8.51408044 C182.29305,8.51408044 183.434371,8.69189643 184.434547,9.04505875 C185.429856,9.39328173 186.279155,9.91685104 186.96054,10.6108273 C187.590821,11.2455316 188.070225,12.0086586 188.393883,12.9002082 C188.715107,13.7966972 188.88302,14.8265481 188.88302,16.0070488 L188.88302,22.1589881 L188.88302,28.3677298 L187.111418,28.3677298 L187.111418,26.5228889 L187.111418,24.73732 C186.464102,25.6535663 185.558833,26.5624036 184.371276,27.2415619 C183.178851,27.9207202 181.701705,28.3677298 179.910635,28.3677298 C178.160935,28.3677298 176.343096,27.8639179 174.960857,26.8612332 C173.581052,25.8585486 172.63928,24.359461 172.63928,22.3738491 Z M232.897107,8.5906401 L235.036171,8.5906401 L242.198017,25.7696406 L249.354997,8.5906401 L251.428355,8.5906401 L243.2785,28.1454598 L241.044529,28.1454598 L232.897107,8.5906401 Z" id="Combined-Shape"></path>
            <path d="M25.7694241,0.000733887043 L25.7694241,14.4387383 L25.7694241,28.8742964 L23.741275,28.8742964 L21.7131259,28.8742964 L21.7131259,14.4387383 L21.7131259,0.000733887043 L23.741275,0.000733887043 L25.7694241,0.000733887043 Z M71.7171059,8.29879468 L71.7171059,18.5414115 C71.7171059,19.9406895 71.4517178,21.2616861 70.9209417,22.5092941 C70.3926003,23.7544558 69.6597397,24.8503938 68.7223599,25.7897692 C67.78498,26.7340372 66.701515,27.4703705 65.4792691,28.0012155 C64.2545884,28.5345067 62.9300828,28.7987061 61.5081872,28.7987061 C60.1155086,28.7987061 58.800742,28.5345067 57.5614528,28.0012155 C56.3197289,27.4703705 55.2386986,26.7340372 54.3159273,25.7897692 C53.393156,24.8503938 52.6675996,23.7544558 52.1368235,22.5092941 C51.6084821,21.2616861 51.3430941,19.9406895 51.3430941,18.5414115 L51.3430941,8.29879468 L55.382349,8.29879468 L55.382349,18.5414115 C55.382349,19.3927205 55.540608,20.1999962 55.8595606,20.9583462 C56.1760785,21.7191424 56.614334,22.3796407 57.1743271,22.9422875 C57.7343203,23.5049342 58.3843993,23.9452664 59.1269989,24.2632841 C59.8671638,24.5837482 60.6608932,24.7403107 61.5081872,24.7403107 C62.3554812,24.7403107 63.1565149,24.5837482 63.913723,24.2632841 C64.6684964,23.9452664 65.3258796,23.5049342 65.8858728,22.9422875 C66.4458659,22.3796407 66.8841215,21.7191424 67.2006393,20.9583462 C67.5195919,20.1999962 67.6778509,19.3927205 67.6778509,18.5414115 L67.6778509,8.29879468 L71.7171059,8.29879468 Z M15.2366833,22.1147075 L18.5601209,24.4533609 C16.7121435,27.1026931 13.6540939,28.8371128 10.1894406,28.8371128 L10.0823115,28.8371128 C4.51403177,28.8371128 0,24.3041372 0,18.7094716 L0,18.4208094 C0,12.8261438 4.51403177,8.29072192 10.0823115,8.29072192 L18.185169,8.29072192 L18.185169,12.3417784 L10.077442,12.3417784 C6.71017884,12.3417784 3.97838615,15.0816234 3.97838615,18.4672889 L3.97838615,18.6434218 C3.97838615,22.0266411 6.71017884,24.7713786 10.077442,24.7713786 L10.1894406,24.7713786 C12.2784586,24.7713786 14.1215665,23.7145813 15.2366833,22.1147075 Z M38.6283278,24.8039143 C35.2099348,24.8039143 32.4367513,22.0175898 32.4367513,18.5829984 C32.4367513,16.4351557 33.5177815,14.5417271 35.1661092,13.4213262 C36.1546189,12.753489 37.345213,12.3620826 38.6283278,12.3620826 C38.6989356,12.3620826 38.7695434,12.3669752 38.8401513,12.3694215 C42.1611541,12.4843971 44.8199042,15.2169032 44.8199042,18.5829984 C44.8199042,22.0175898 42.0491555,24.8039143 38.6283278,24.8039143 M38.9789322,8.31591871 C38.862064,8.30857984 38.7451959,8.29879468 38.6283278,8.29879468 C36.507658,8.29879468 34.537943,8.94461528 32.9042238,10.055231 C30.1821701,11.9021801 28.3926268,15.0358777 28.3926268,18.5829984 C28.3926268,24.2583916 32.9772664,28.8672022 38.6283278,28.8672022 C44.2818239,28.8672022 48.8640287,24.2583916 48.8640287,18.5829984 C48.8640287,13.0201347 44.4668651,8.50428305 38.9789322,8.31591871 M90.6813957,12.3537652 L90.6813957,12.3733355 L90.6838305,12.3733355 L90.6838305,18.5648959 C90.6838305,22.0019335 87.910647,24.788258 84.492254,24.788258 C81.0714263,24.788258 78.2982428,22.0019335 78.2982428,18.5648959 C78.2982428,16.4194994 79.3841426,14.5260709 81.0276007,13.40567 C82.0161104,12.7353865 83.2091393,12.3537652 84.492254,12.3537652 M84.4898193,8.29781616 C82.3691495,8.29781616 80.3994345,8.92651273 78.7657153,10.0395747 C76.0436617,11.8865238 74.2565531,15.0177752 74.2565531,18.5673422 C74.2565531,24.2451816 78.8387579,28.8490996 84.492254,28.8490996 C90.1408806,28.8490996 94.727955,24.2451816 94.727955,18.5673422 L94.727955,8.29781616 L94.7255202,8.29781616 L94.7255202,6.18666777 L94.7255202,0 L92.7022406,0 L90.6813957,0 L90.6813957,6.18666777 L90.6813957,8.29781616" id="Combined-Shape"></path>
        </g>
    </g>
</svg>