<?xml version="1.0" encoding="UTF-8"?>
<svg width="209px" height="75px" viewBox="0 0 209 75" version="1.1" xmlns="http://www.w3.org/2000/svg" xmlns:xlink="http://www.w3.org/1999/xlink">
    <!-- Generator: Sketch 49.3 (51167) - http://www.bohemiancoding.com/sketch -->
    <title>logo-travelstart</title>
    <desc>Created with Sketch.</desc>
    <defs></defs>
    <g id="Webpage" stroke="none" stroke-width="1" fill="none" fill-rule="evenodd">
        <g id="Desktop-HD-Copy-4" transform="translate(-818.000000, -407.000000)" fill-rule="nonzero">
            <g id="logo-travelstart" transform="translate(818.000000, 407.000000)">
                <path d="M193,0 C184.163444,1.51557937e-14 177,7.163444 177,16 C177,24.836556 184.163444,32 193,32 C201.836556,32 209,24.836556 209,16 C209,11.7565362 207.314291,7.68687356 204.313708,4.6862915 C201.313126,1.68570945 197.243464,2.5983722e-16 193,0 M193,25.55521 C187.722803,25.55521 183.44479,21.2771967 183.44479,16 C183.44479,10.7228033 187.722803,6.44479005 193,6.44479005 C198.277197,6.44479005 202.55521,10.7228033 202.55521,16 C202.55521,18.5341992 201.548503,20.9646043 199.756554,22.7565538 C197.964604,24.5485032 195.534199,25.55521 193,25.55521" id="Shape" fill="#35C0F0"></path>
                <path d="M12,25.3358466 L14.5055556,25.3358466 L14.5055556,30.6473689 L14.5911111,30.6473689 C15.8097737,27.0436198 19.2662939,24.7324596 23,25.0248676 L23,27.7988007 C20.8074628,27.6180299 18.6443189,28.4048813 17.0610718,29.9591073 C15.4778246,31.5133333 14.6271564,33.6850505 14.7255556,35.9215736 L14.7255556,48 L12,48 L12,25.3358466 Z" id="Shape" fill="#6A6A6C"></path>
                <polygon id="Shape" fill="#6A6A6C" points="43 25 46.0493827 25 53.1111111 45.1849616 53.1975309 45.1849616 60.1728395 25 63 25 54.5925926 48 51.6666667 48"></polygon>
                <path d="M65.7359055,35.4190871 C66.167242,31.2863071 68.6566695,27.3278008 73.1302447,27.3278008 C77.6038199,27.3278008 80.142543,31.2365145 80.265782,35.4190871 L65.7359055,35.4190871 Z M82.9893636,37.746888 C83.1988699,31.373444 80.3274015,25 73.1302447,25 C65.9330879,25 63,31.0248963 63,37 C63,43.4605809 65.9947074,49 73.1302447,49 C78.7869142,49 81.7569737,46.0124481 82.9893636,40.8589212 L80.1795147,40.8589212 C79.3168418,44.2946058 77.1355117,46.659751 73.1302447,46.659751 C67.86794,46.659751 65.7359055,41.7925311 65.7359055,37.746888 L82.9893636,37.746888 Z" id="Shape" fill="#6A6A6C"></path>
                <rect id="Rectangle-path" fill="#6A6A6C" x="87" y="16" width="3" height="32"></rect>
                <path d="M108.485135,31.3568465 C108.351351,27.93361 105.772973,26.3775934 102.683784,26.3775934 C100.251351,26.3775934 97.4418919,27.3485477 97.4418919,30.2863071 C97.4418919,32.7759336 100.190541,33.6348548 102.039189,34.1078838 L105.687838,34.9543568 C108.777027,35.4273859 112,37.2821577 112,41.1784232 C112,46.1576763 107.232432,48 103.109459,48 C97.9527027,48 94.4378378,45.5103734 94,39.9958506 L96.7121622,39.9958506 C96.9310811,43.7302905 99.6310811,45.659751 103.231081,45.659751 C105.772973,45.659751 109.312162,44.526971 109.312162,41.3651452 C109.312162,38.7261411 106.87973,37.8423237 104.447297,37.2323651 L100.968919,36.4356846 C97.4540541,35.4647303 94.7905405,34.2448133 94.7905405,30.373444 C94.7905405,25.7551867 99.2054054,24 103.121622,24 C107.548649,24 111.063514,26.3775934 111.233784,31.2946058 L108.485135,31.3568465 Z" id="Shape" fill="#6A6A6C"></path>
                <path d="M142.319407,39.5382357 C142.319407,43.9656198 138.680593,46.6394612 134.617251,46.6394612 C133.381441,46.7314013 132.161762,46.3079487 131.234671,45.465085 C130.307581,44.6222212 129.75159,43.4313255 129.692722,42.1623313 C129.692722,37.7349473 135.381402,37.7722567 139.966307,36.9390131 C140.69407,36.8146484 141.894879,36.5907919 142.234501,35.9316589 L142.319407,35.9316589 L142.319407,39.5382357 Z M142.319407,44.8734822 L142.319407,48.3183849 L145,48.3183849 L145,32.2877726 C145,26.2312107 140.778976,25 136.885445,25 C131.839623,25 128.188679,27.2883108 127.933962,32.5986844 L130.638814,32.5986844 C130.71159,28.8677428 133.198113,27.3256203 136.545822,27.3256203 C139.71159,27.3256203 142.319407,28.2459192 142.319407,31.9768608 C142.319407,34.4641552 141.106469,34.7875034 138.850404,35.0486694 C133.028302,35.7575483 127,35.9814047 127,42.3364419 C127,46.9006271 130.33558,48.977518 134.398922,48.977518 C137.627952,49.2174973 140.700973,47.5208997 142.283019,44.6247528 C142.283019,44.6247528 142.283019,44.6247528 142.283019,44.8734822 L142.319407,44.8734822 Z" id="Shape" fill="#6A6A6C"></path>
                <path d="M39.2727273,39.5382357 C39.2727273,43.9656198 35.6363636,46.6394612 31.5636364,46.6394612 C30.3286592,46.7314013 29.1098016,46.3079487 28.183335,45.465085 C27.2568684,44.6222212 26.701252,43.4313255 26.6424242,42.1623313 C26.6424242,37.7349473 32.3393939,37.7722567 36.9212121,36.9390131 C37.6363636,36.8146484 38.8363636,36.5907919 39.1878788,35.9316589 L39.2727273,35.9316589 L39.2727273,39.5382357 Z M39.2727273,44.8734822 L39.2727273,48.3183849 L42,48.3183849 L42,32.2877726 C42,26.2312107 37.7818182,25 33.8787879,25 C28.8363636,25 25.2,27.2883108 24.9333333,32.5986844 L27.6363636,32.5986844 C27.7212121,28.8677428 30.2060606,27.3256203 33.5393939,27.3256203 C36.8727273,27.3256203 39.3212121,28.2459192 39.3212121,31.9768608 C39.3212121,34.4641552 38.1090909,34.7875034 35.8545455,35.0486694 C30.0363636,35.7575483 24,35.9814047 24,42.3488784 C24,46.9006271 27.3333333,48.977518 31.3939394,48.977518 C34.6207953,49.2174973 37.6917472,47.5208997 39.2727273,44.6247528 C39.2727273,44.6247528 39.2727273,44.6247528 39.2727273,44.8734822 Z" id="Shape" fill="#6A6A6C"></path>
                <path d="M150.061111,25.3358466 L152.505556,25.3358466 L152.505556,30.6473689 L152.591111,30.6473689 C153.809774,27.0436198 157.266294,24.7324596 161,25.0248676 L161,27.7988007 C158.806435,27.6183973 156.642305,28.4049414 155.057215,29.9586814 C153.472125,31.5124214 152.618575,33.6838736 152.713333,35.9215736 L152.713333,48 L150,48 L150.061111,25.3358466 Z" id="Shape" fill="#6A6A6C"></path>
                <path d="M165.104651,18 L167.686047,18 L167.686047,24.8661088 L172,24.8661088 L172,27.2008368 L167.662791,27.2008368 L167.662791,42.6401674 C167.662791,44.4476987 167.906977,45.5146444 169.755814,45.6527197 C170.497894,45.6501468 171.239297,45.6040537 171.976744,45.5146444 L171.976744,47.9121339 C171.197674,47.9121339 170.453488,48 169.651163,48 C166.162791,48 165,46.7447699 165,42.8535565 L165.104651,18 Z" id="Shape" fill="#6A6A6C"></path>
                <path d="M116.081667,18 L118.683333,18 L118.683333,24.8661088 L123,24.8661088 L123,27.2008368 L118.683333,27.2008368 L118.683333,42.6401674 C118.683333,44.4476987 118.928333,45.5146444 120.783333,45.6527197 C121.524018,45.650516 122.264028,45.604421 123,45.5146444 L123,47.9121339 C122.218333,47.9121339 121.483333,48 120.666667,48 C117.166667,48 116,46.7447699 116,42.8535565 L116.081667,18 Z" id="Shape" fill="#6A6A6C"></path>
                <path d="M0.0816666667,18 L2.68333333,18 L2.68333333,24.8661088 L7,24.8661088 L7,27.2008368 L2.68333333,27.2008368 L2.68333333,42.6401674 C2.68333333,44.4476987 2.92833333,45.5146444 4.78333333,45.6527197 C5.52401798,45.650516 6.26402765,45.604421 7,45.5146444 L7,47.9121339 C6.21833333,47.9121339 5.47166667,48 4.66666667,48 C1.16666667,48 0,46.7447699 0,42.8535565 L0.0816666667,18 Z" id="Shape" fill="#6A6A6C"></path>
                <path d="M184.961069,48.575514 C184.193981,48.8802778 183.365768,49.022753 182.534392,48.992969 C181.287837,49.0624941 180.071302,48.6137577 179.203416,47.7642905 C178.335529,46.9148232 177.902752,45.7492522 178.018436,44.5728576 C177.943106,43.3475197 178.42199,42.1496718 179.335574,41.2782559 C180.249158,40.4068401 181.511262,39.9440597 182.806906,40.0054091 C183.560034,39.9764955 184.310179,40.1108861 185,40.3983079 L184.688555,41.3191644 C184.116484,41.0654788 183.490487,40.9394602 182.858814,40.9508218 C181.854659,40.8984445 180.876896,41.2661665 180.18476,41.9564933 C179.492624,42.6468202 179.156029,43.5900206 179.264217,44.5360233 C179.155182,45.4614538 179.48372,46.3851994 180.161888,47.0599963 C180.840056,47.7347931 181.798604,48.0917353 182.780953,48.0352782 C183.453302,48.0480926 184.120964,47.9267709 184.740462,47.6792137 L184.961069,48.575514 Z" id="Shape" fill="#9D9D9D"></path>
                <path d="M193,44.420191 C193,47.4038199 191.170015,49 188.931994,49 C186.693972,49 185,47.207367 185,44.5675307 C185,41.9276944 186.718702,40 189.055641,40 C191.392581,40 193,41.8294679 193,44.420191 M186.187017,44.5429741 C186.187017,46.4215553 187.200927,48.0791269 188.993818,48.0791269 C190.786708,48.0791269 191.800618,46.4461119 191.800618,44.4693042 C191.800618,42.7257844 190.897991,40.9208731 189.006182,40.9208731 C187.114374,40.9208731 186.149923,42.6521146 186.149923,44.5429741" id="Shape" fill="#9D9D9D"></path>
                <polygon id="Shape" fill="#9D9D9D" points="194 48.3262712 198.549323 41.0169492 198.549323 40.9788136 194.394584 40.9788136 194.394584 40 199.941973 40 199.941973 40.7118644 195.404255 47.9830508 195.404255 48.0338983 200 48.0338983 200 49 194 49"></polygon>
                <path d="M203.983137,46.1652542 L203.180438,49 L202,49 L204.856661,40 L206.143339,40 L209,49 L207.819562,49 L206.922428,46.1652542 L203.983137,46.1652542 Z M206.733558,45.2627119 L205.907251,42.720339 C205.718381,42.1355932 205.600337,41.6016949 205.470489,41.0805085 C205.352445,41.6016949 205.222597,42.1610169 205.045531,42.7076271 L204.231029,45.25 L206.733558,45.2627119 Z" id="Shape" fill="#9D9D9D"></path>
                <path d="M12.8431073,60.5285639 C12.7450454,60.6796145 12.6062107,60.7956636 12.4448411,60.8614665 C12.3177264,60.9298586 12.1770291,60.9649808 12.0345062,60.9638981 C11.7911145,60.9705595 11.5528105,60.8892952 11.3586605,60.733427 L10.6828148,60.733427 L8.82423925,60.733427 L7.72599004,60.733427 L7.60530331,60.733427 C7.60530331,60.8230547 7.60530331,60.9126823 7.60530331,60.989506 C7.59929061,61.0747464 7.59929061,61.1603444 7.60530331,61.2455849 C7.60530331,61.5400756 7.60530331,61.8601742 7.60530331,62.2186847 C7.60530331,62.5771952 7.60530331,62.9485096 7.60530331,63.30702 L7.60530331,64.9075132 C7.60530331,65.6757499 7.60530331,66.3671629 7.60530331,66.9945562 C7.60609943,67.4584185 7.64649333,67.9212511 7.72599004,68.3773823 C7.93769637,68.5532094 8.06213885,68.8219726 8.06391287,69.1072072 L8.06391287,69.1840309 C8.04507371,69.4235241 7.93636662,69.6449576 7.76219606,69.7986202 C7.60063116,69.9226647 7.40646915,69.9898357 7.20703711,69.9906794 C7.14726222,70.0031069 7.08578192,70.0031069 7.02600702,69.9906794 C6.80195051,69.934527 6.59457946,69.8201245 6.42257339,69.6577768 C6.19203429,69.4318655 6.05350872,69.1195647 6.03637586,68.7871086 C6.03637586,68.3261665 5.92775781,67.8140087 5.90362046,67.2250272 C5.87948312,66.6360458 5.90362046,65.9446327 5.90362046,65.3300434 C5.90362046,64.715454 5.90362046,64.1648844 5.90362046,63.5759029 C5.90362046,62.9869214 5.90362046,62.4235478 5.90362046,61.8601742 C5.90362046,61.680919 5.90362046,61.4888598 5.90362046,61.3096046 C5.90362046,61.1303493 5.90362046,60.9510941 5.90362046,60.7718389 L1.9088898,60.7718389 L0.870983953,60.7718389 C0.629040409,60.782662 0.39494244,60.6795691 0.2313443,60.4901521 C0.0857039042,60.3276925 0.00373106521,60.1125637 0.00203951946,59.8883667 C-0.0130526223,59.6566316 0.0560414256,59.427558 0.195138282,59.2481694 C0.342777157,59.0769997 0.5563682,58.9873023 0.774434571,59.0048945 L2.47611742,59.0048945 L12.0586435,59.0048945 C12.3256537,58.9761991 12.5908992,59.0746909 12.7827639,59.2737773 C12.9214297,59.4296583 12.9990825,59.6356176 13,59.8499548 L13,60.0036022 C12.9766666,60.1731205 12.9098678,60.3325747 12.8069012,60.4645442" id="Shape" fill="#35C0F0"></path>
                <path d="M19.3656412,65.3459754 L19.1777333,65.3459754 C19.1067521,65.3286602 19.0391025,65.2966813 18.9780813,65.2515971 C18.8642795,65.185724 18.7408461,65.1445842 18.6140098,65.1302535 L18.426102,65.1302535 C18.2269207,65.1661272 18.0305575,65.2202301 17.8388899,65.2920449 C17.5895872,65.37375 17.3461499,65.4774247 17.110747,65.6021451 C16.864118,65.7234887 16.6057447,65.8717975 16.3473714,66.0335889 C16.1018355,66.1770065 15.8627342,66.3345024 15.6309728,66.5054805 C15.3575018,66.6830164 15.1210395,66.9268733 14.9380626,67.2200592 C14.8535555,67.3629509 14.7937503,67.523152 14.761899,67.6919508 C14.761899,67.826777 14.761899,67.9885684 14.6914335,68.1503598 C14.6904487,68.398716 14.5962977,68.6345426 14.4330603,68.7975255 C14.2863727,68.9315267 14.1037537,69.0029983 13.9163137,68.9997647 C13.7230486,69.0048274 13.5349231,68.9280375 13.3878229,68.7840428 C13.2282567,68.6023593 13.1393287,68.3544238 13.1411938,68.0964294 C13.1411938,67.9616032 13.1411938,67.826777 13.1411938,67.6919508 L13.1411938,66.3436891 C13.1411938,66.0470715 13.1411938,65.7504539 13.1411938,65.4808016 C13.1411938,65.2111492 13.1411938,64.9684621 13.1411938,64.7527403 C13.0494442,64.6855841 12.9957562,64.5674506 13.0002629,64.4426401 C13.0052545,64.3393618 13.0380872,64.2404186 13.0942169,64.1595051 C13.1957728,63.9457406 13.2859766,63.725122 13.3643344,63.4988568 C13.4074907,63.3336552 13.5041601,63.193726 13.6344519,63.1078609 C13.7544577,63.0374348 13.8872361,63.0004815 14.0220118,63 L14.1511985,63 L14.3391063,63 C14.4726598,63.050875 14.5908069,63.1444166 14.6796893,63.2696523 C14.7853241,63.3913439 14.8444756,63.5562613 14.8441087,63.7280613 C14.8441087,63.7280613 14.8441087,63.7280613 14.8441087,63.808957 C14.8386141,63.8355534 14.8386141,63.8632564 14.8441087,63.8898527 C14.8045027,64.0805609 14.7770271,64.2743225 14.761899,64.4696053 C14.761899,64.7122924 14.761899,64.9280143 14.7031778,65.1302535 L14.761899,65.1302535 L14.8558529,65.1302535 C15.1249322,64.9134285 15.4075587,64.7196533 15.7014382,64.550501 C16.0185327,64.3617444 16.3591157,64.1864703 16.6996986,64.0246789 C17.0257592,63.8766143 17.3590813,63.7505615 17.6979591,63.6471656 C17.9883361,63.5458477 18.2877568,63.482527 18.5905213,63.458409 L18.6609868,63.458409 C18.8732638,63.4536424 19.0844244,63.4948075 19.2834315,63.5797525 C19.4332749,63.6383231 19.5755031,63.7199634 19.7062242,63.8224397 C19.8946192,63.971981 20.0049365,64.2202081 19.9998302,64.4830879 C19.9978765,64.6932664 19.9450128,64.8986741 19.847155,65.0763231 C19.7296603,65.3215145 19.5036722,65.471989 19.259943,65.467319" id="Shape" fill="#35C0F0"></path>
                <path d="M31.9754074,67.6207613 C31.9734117,67.7772957 31.9398411,67.9314755 31.8770368,68.0725483 C31.8002866,68.2194527 31.6902831,68.3428986 31.5573325,68.4313203 C31.1222449,68.6847686 30.6700993,68.9024199 30.2047374,69.082425 C29.7358564,69.2688133 29.2491882,69.3980628 28.7537717,69.4677727 L28.2373263,69.4677727 C27.9115525,69.4835167 27.5869931,69.4151925 27.2905097,69.2684549 C27.0289834,69.1087356 26.8090406,68.8801989 26.6511011,68.6040624 C26.5451481,68.4315161 26.46235,68.2436193 26.4051747,68.0459726 C26.3370522,67.8365133 26.2997106,67.6168157 26.2945078,67.3948678 C26.263146,67.3800767 26.2274991,67.3800767 26.1961373,67.3948678 C25.989166,67.5390236 25.7919289,67.6988799 25.6059139,67.8732305 C25.3599876,68.0858361 25.1140612,68.3250175 24.8435421,68.5774866 L24.3639857,68.9894101 L23.9213182,69.3880456 C23.5117065,69.7562671 23.002511,69.9707734 22.4703525,69.9992868 C22.1185824,70.0110018 21.775804,69.878031 21.5112396,69.6272269 C21.1465449,69.2590863 20.9603485,68.729068 21.0070905,68.1921389 C21.0448882,67.6667076 21.1830537,67.1554453 21.412869,66.6906117 C21.6017202,66.2887485 21.8239674,65.906258 22.0768703,65.5478564 C22.3473893,65.1890844 22.6179083,64.8436003 22.9007237,64.5246918 C23.183539,64.2057834 23.490947,63.9134507 23.7860587,63.6476936 C24.0811703,63.3819366 24.3639857,63.169331 24.6099121,62.983301 C24.8558385,62.7972711 25.2493207,62.5713776 25.6428029,62.3454841 C26.0219988,62.1278827 26.4431808,62.0095451 26.8724348,62 C27.1201279,62.0045051 27.3653636,62.0539139 27.5979177,62.1461664 C27.8747809,62.2648412 28.132189,62.4308426 28.3602895,62.6378169 C28.4659024,62.7254458 28.5502869,62.839432 28.6062159,62.9700132 C28.6538986,63.0732286 28.6791331,63.1868507 28.6799938,63.3022095 C28.6809931,63.4607678 28.6427877,63.6167375 28.5693269,63.7539964 C28.4871544,63.8939346 28.3727514,64.008405 28.2373263,64.0861927 C28.0965074,64.1777863 27.934365,64.2238961 27.7700661,64.2190713 C27.5895308,64.2192053 27.4133967,64.1588546 27.265917,64.0463292 C27.1835823,63.9684337 27.0873225,63.9096387 26.9831017,63.8735871 C26.8769153,63.8598031 26.7695838,63.8598031 26.6633974,63.8735871 C26.2151367,63.900817 25.7856375,64.0771873 25.4337655,64.3785255 C25.2124317,64.5379797 24.9788017,64.7372975 24.7205789,64.963191 C24.4623562,65.1890844 24.2164299,65.4548415 23.9705035,65.7338864 C23.7272327,66.0179164 23.497408,66.3150579 23.2819096,66.6241724 C23.0878636,66.8955147 22.9228624,67.1897201 22.7900568,67.5011707 C22.7427414,67.576482 22.7131913,67.6631571 22.7039826,67.7536398 C22.6924013,67.8506822 22.6924013,67.9489302 22.7039826,68.0459726 C22.7039826,68.1389875 22.7039826,68.1921389 22.7039826,68.2054268 C22.8213153,68.1779008 22.9283623,68.1131206 23.0113906,68.0193969 L23.2327243,67.8466548 L23.8967255,67.2487015 L24.6590973,66.571021 L25.4214691,65.9332041 C25.6331986,65.7546651 25.8549568,65.5904673 26.0854704,65.4415536 C26.3504007,65.2448898 26.661865,65.1342335 26.9831017,65.1226452 C27.2581971,65.0610597 27.5436659,65.1506207 27.7454735,65.3618265 C27.9163949,65.5581795 28.0014246,65.8241659 27.9791036,66.0926584 L27.9791036,66.3849911 C27.9791036,66.571021 27.9791036,66.7304752 27.9791036,66.8766416 C27.9862931,66.9953492 28.0112076,67.1120179 28.0528815,67.2221258 C28.0915137,67.3636417 28.1635524,67.4918614 28.2619189,67.5941856 C28.3595811,67.6662542 28.4756903,67.703431 28.5939195,67.7004884 L28.6676975,67.7004884 L29.1718465,67.5808978 L29.7620699,67.3948678 L30.3399969,67.1689744 C30.506069,67.1047007 30.666548,67.024661 30.8195533,66.929793 C30.944483,66.8566856 31.0833537,66.8157577 31.2253319,66.8102024 C31.4605615,66.8121339 31.6822358,66.9294642 31.8278515,67.1291108 C31.9332784,67.2836073 31.99326,67.4688027 32,67.6606249" id="Shape" fill="#35C0F0"></path>
                <path d="M37.9286991,64.4750069 C37.7907548,64.665651 37.5781994,64.7852816 37.3467264,64.8025533 L36.5509679,64.8025533 C36.372813,65.2514132 36.1709041,65.7609299 35.9333643,66.3189719 C35.7244854,66.8222485 35.4865266,67.3124092 35.2207447,67.7868651 C34.7694189,68.6117968 34.2587083,69 33.7123666,69 C33.1660249,69 32.6790682,68.6239282 32.2277425,67.8717846 C32.1327265,67.6898143 32.0377106,67.4835814 31.9308176,67.2409544 C31.8236035,67.0076311 31.7284566,66.7687191 31.6457698,66.5252048 C31.500013,66.082801 31.3927051,65.628139 31.325091,65.1664938 C31.241952,64.6812398 31.1825671,64.1959859 31.1231821,63.7228632 C31.065565,63.6572279 31.0247602,63.5780384 31.0044122,63.4923676 C30.9985293,63.3954098 30.9985293,63.298173 31.0044122,63.2012152 L31.0044122,62.982851 C31.0044122,62.982851 31.0044122,62.982851 31.0044122,62.982851 C31.0044122,62.982851 31.0044122,62.982851 31.0044122,62.982851 L31.0044122,62.8736688 L31.0044122,62.8008807 C31.0274378,62.5657412 31.1379792,62.348609 31.313214,62.1943133 C31.461977,62.0647502 31.652229,61.9956564 31.8476787,62.0002117 C32.022078,62.012291 32.1883133,62.0802092 32.3227584,62.1943133 C32.4811114,62.3657739 32.5738475,62.5896624 32.5840522,62.8251434 C32.5840522,62.9949823 32.5840522,63.2133466 32.5840522,63.4681049 C32.5840522,63.7228632 32.6434372,64.0018843 32.6909452,64.2930366 C32.7384532,64.584189 32.7859611,64.8874727 32.8453461,65.2028878 C32.9047311,65.5183029 32.98787,65.8094552 33.071009,66.1006076 C33.071009,66.2340525 33.1541479,66.3674973 33.2016559,66.5009421 C33.2423778,66.6172789 33.2983103,66.7274587 33.3679338,66.8284886 C33.4867037,67.0104588 33.5579657,67.1075096 33.5817197,67.1075096 C33.6168879,67.1158046 33.6534444,67.1158046 33.6886126,67.1075096 C33.756273,67.0531546 33.8093848,66.9822132 33.8430135,66.9012766 C34.0753394,66.5095029 34.2855104,66.1044615 34.4724941,65.6881418 C34.674403,65.2271505 34.8525579,64.7782906 35.0188358,64.3294307 C34.9058458,64.1712415 34.8473713,63.9792626 34.8525579,63.78352 C34.8466768,63.3824496 35.1126224,63.0303223 35.4939155,62.9343256 C35.6055412,62.8679318 35.7329617,62.8343448 35.8621023,62.8372748 C36.0238781,62.8355051 36.181987,62.8865035 36.313428,62.982851 C36.4364996,63.0714314 36.5380717,63.1876285 36.6103529,63.3225287 L36.8360157,63.3225287 L37.3348494,63.3225287 C37.5291315,63.3050769 37.7182438,63.3924599 37.8336831,63.5530244 C37.943201,63.6991633 38.0017304,63.8785119 37.999961,64.062541 C37.9911441,64.2709688 37.9253103,64.4727001 37.8099291,64.6448458" id="Shape" fill="#35C0F0"></path>
                <path d="M46.8936025,67.0000138 C46.8948342,67.1499866 46.853978,67.2969732 46.7762078,67.4223594 C46.6805227,67.565894 46.5385787,67.667497 46.3770658,67.7080638 L46.083579,67.8198611 L45.7313949,67.9689243 L44.9096319,68.3043164 C44.6044057,68.4161137 44.2757005,68.540333 43.9352559,68.6397085 C43.5948112,68.7390839 43.2426271,68.8260374 42.8787035,68.900569 C42.5099789,68.96448 42.1370867,68.9977069 41.7634538,68.9999444 C41.472402,69.0013415 41.1817702,68.9764068 40.894733,68.9254128 C39.8047011,68.7973531 38.9858617,67.8125157 39.0046782,66.6521998 C38.9984406,66.5322118 38.9984406,66.4119518 39.0046782,66.2919638 C38.9989914,66.1802474 38.9989914,66.0682881 39.0046782,65.9565717 C39.1069027,65.3107318 39.3050073,64.6860607 39.5916517,64.1057043 C39.8246865,63.6295154 40.0915479,63.1727322 40.3899357,62.7392921 C40.8205783,62.1602473 41.3602699,61.682244 41.9747643,61.335614 C42.1558631,61.230511 42.3492772,61.1511538 42.5499983,61.0995974 C42.7677416,61.0344377 42.9928659,61.0010044 43.2191482,61.000222 C43.5123408,60.9951559 43.8010356,61.0769034 44.0526506,61.2362386 C44.2953713,61.3787001 44.4825375,61.6075542 44.5809268,61.8821789 C44.6791664,62.1561252 44.7308335,62.4463004 44.7335399,62.7392921 C44.7384777,63.037118 44.7028948,63.3341465 44.6278847,63.621249 C44.5153336,64.0200154 44.3231704,64.3885589 44.0643901,64.7019569 C43.7880466,65.0559258 43.4682524,65.3692452 43.1134929,65.6336016 C42.7495066,65.9070392 42.3552598,66.1323088 41.9395459,66.3043857 C41.5649191,66.4760354 41.1699931,66.5930431 40.7655988,66.6521998 C40.7620502,66.8161742 40.8164732,66.9756455 40.9182119,67.0993892 C41.0328016,67.2178117 41.1816042,67.2921645 41.3408329,67.310562 C41.5324987,67.3628539 41.7298899,67.3879178 41.9278064,67.3850936 C42.4948208,67.3789445 43.0573818,67.2783364 43.5948112,67.0869673 C44.1817848,66.8882164 44.7687583,66.7018875 45.1796398,66.5155585 L45.6492186,66.3416515 L46.0366211,66.1925884 L46.1422764,66.1925884 L46.2714105,66.1925884 C46.4147329,66.1925499 46.554412,66.2403673 46.6705525,66.3292296 C46.7783453,66.4201687 46.8664211,66.5345455 46.9288209,66.6646217 C46.980529,66.7853557 47.0046584,66.9172717 46.9992577,67.0497015 M43.1487113,62.9131991 C43.1531726,62.8719272 43.1531726,62.8302517 43.1487113,62.7889798 L43.1487113,62.6896043 C43.1033147,62.6714844 43.0532344,62.6714844 43.0078377,62.6896043 C42.9459766,62.6751085 42.8818673,62.6751085 42.8200062,62.6896043 L42.6321746,62.7641359 C42.4633933,62.8839981 42.3095672,63.0258989 42.1743353,63.1864815 C41.9651404,63.4148356 41.7728301,63.6598541 41.5991012,63.9193753 C41.411739,64.1985226 41.2616269,64.50366 41.1530013,64.8261762 C41.3643118,64.7516446 41.5873617,64.6522692 41.7986722,64.5528937 C42.0088257,64.4439324 42.209216,64.3150455 42.3973852,64.1678139 C42.5752759,64.0410186 42.7336575,63.8859989 42.866964,63.7082025 C42.9923413,63.5671129 43.084805,63.3969581 43.1369719,63.2113254 C43.1475818,63.1039613 43.1475818,62.9957192 43.1369719,62.8883552" id="Shape" fill="#35C0F0"></path>
                <path d="M56.973684,67.1407708 C56.9691494,67.3071576 56.9096236,67.4682567 56.8031317,67.6023492 C56.6735054,67.7556377 56.5011248,67.8732385 56.3045941,67.9424596 L56.1209224,68.0153404 L55.9372507,68.0882212 L55.0320115,68.3675975 C54.6909068,68.4769187 54.3366828,68.5740931 53.9562199,68.6712675 L52.8017119,68.9020567 C52.4203663,68.9634335 52.0342522,68.9959326 51.6472039,68.9992311 C51.1246959,69.0087079 50.6046515,68.9305171 50.1122331,68.7684419 C49.7323365,68.6186461 49.38881,68.3997223 49.1020386,68.1246616 C48.8277217,67.8337152 48.610192,67.5007834 48.4591875,67.1407708 C48.2968079,66.7480833 48.1781188,66.3410831 48.1049635,65.926091 C48.0344386,65.4104095 47.9993829,64.8910994 48.0000082,64.3713007 L48.0000082,64.2376859 C48.0015821,63.7241253 48.0542827,63.2117923 48.1574411,62.7071892 C48.2700975,62.1674846 48.4235344,61.6357675 48.6166204,61.1159586 C48.7806991,60.6486409 48.97343,60.1903674 49.1938744,59.7433703 C49.3877215,59.3541433 49.6158974,58.9803755 49.8760837,58.6258648 C50.1866235,58.1689037 50.5716382,57.7591662 51.0174723,57.4111849 C51.3294082,57.1724329 51.7154574,57.0320142 52.1195027,57.0103406 C52.1975148,56.9965531 52.2776398,56.9965531 52.355652,57.0103406 C52.8087803,57.0809039 53.1985317,57.347036 53.4052047,57.7270017 C53.717645,58.3464497 53.8746254,59.0233311 53.864384,59.7069299 C53.8716396,59.783713 53.8716396,59.860936 53.864384,59.9377191 L53.864384,60.1685083 C53.8597738,60.8244188 53.7939317,61.4787327 53.6675929,62.1241429 C53.5278336,62.7754139 53.3122929,63.4107528 53.0247419,64.0190435 C52.7369954,64.6218499 52.3760752,65.1923728 51.9489503,65.7195954 C51.5422487,66.2297609 51.135547,66.6913393 50.7550841,67.0800368 L50.9912335,67.2015048 L51.2798605,67.2986792 L51.5028904,67.2986792 L51.7652786,67.2986792 C52.0736622,67.2981637 52.38125,67.2696853 52.6836372,67.2136516 C53.0326515,67.1610289 53.3785705,67.0921092 53.7200706,67.0071561 L54.7565039,66.7277797 L55.7535789,66.3998161 C55.8639121,66.3503129 55.9852093,66.3253563 56.107803,66.3269353 C56.4863829,66.3151091 56.8236681,66.546801 56.9212063,66.8856881 C56.9745054,66.9748255 57.0016456,67.0753381 56.9999228,67.1772112 M51.7521592,59.160324 C51.6557423,59.1789572 51.5683518,59.2258008 51.5028904,59.2939388 C51.3645289,59.4320073 51.2414657,59.5825706 51.135547,59.7433703 C50.9484138,60.0032367 50.7901742,60.2799749 50.6632483,60.5693526 C50.4855188,60.9300209 50.3407,61.303827 50.2303078,61.6868581 C50.0947928,62.0862298 49.9809489,62.4916301 49.8892031,62.901538 C49.8100427,63.3231704 49.7618278,63.7492842 49.7448896,64.1769519 L49.7448896,64.3591539 C49.7372342,64.7353006 49.7813198,65.1108199 49.8760837,65.4766594 C50.1778301,65.136549 50.4533377,64.7842919 50.7288453,64.4198879 C51.0018791,64.0599191 51.2306967,63.6728779 51.4110546,63.265942 C51.4947732,63.0719291 51.5648889,62.8731187 51.6209651,62.6707488 C51.6209651,62.4278129 51.7390398,62.1605833 51.8046368,61.8812069 C51.8702339,61.6018305 51.9095921,61.3103074 51.9358309,61.0187842 C51.9542647,60.7477741 51.9542647,60.4759587 51.9358309,60.2049487 L51.9358309,59.9741595 C51.9358309,59.4639939 51.8177562,59.1846176 51.6996816,59.1238836" id="Shape" fill="#35C0F0"></path>
                <path d="M79.5362718,68.437229 C79.4057728,68.5550036 79.2433824,68.6252058 79.0728138,68.6375842 C79.0192866,68.6512068 78.9635044,68.6512068 78.9099772,68.6375842 C78.9099772,68.6375842 78.9099772,68.6375842 78.9099772,68.6375842 L78.7972442,68.6375842 L78.4465192,68.7310834 L77.9580093,68.8379395 L77.4193959,68.9715097 L76.8933084,69.1317939 C76.4931358,69.2964179 76.0694863,69.3867698 75.6407191,69.3989342 C75.3326425,69.4006803 75.0269063,69.3418152 74.7388548,69.225293 C74.4360639,69.0926049 74.1691255,68.8814127 73.9622495,68.6108702 C73.6564663,68.2505292 73.4221338,67.828003 73.2733254,67.3686676 C73.0998777,66.8490133 72.9576299,66.3181113 72.847445,65.7791826 C72.7848155,65.5921843 72.7221861,65.4853282 72.6470307,65.4853282 C72.3110657,65.5631678 72.0001077,65.7335686 71.7451664,65.9795378 C71.6125872,66.0713367 71.4869451,66.1740538 71.3693896,66.2867492 C71.2190789,66.4336764 71.0311905,66.6206746 70.8433021,66.8343869 C70.6554137,67.0480992 70.4424736,67.2618115 70.2420593,67.5022378 C70.041645,67.7426641 69.8412307,67.9697334 69.6533423,68.2101597 C69.5554966,68.3524823 69.4264886,68.4671223 69.2775655,68.5440851 C69.1258613,68.6245678 68.9584922,68.6657542 68.7890557,68.6642983 C68.6141013,68.6660067 68.4416376,68.6200299 68.28802,68.5307281 C68.1262452,68.4491549 67.9941789,68.31302 67.9122432,68.1433746 C67.812655,67.9481711 67.7328732,67.7421988 67.6742512,67.5289518 C67.5990959,67.3152395 67.5364664,67.1015273 67.4738369,66.901172 C67.4738369,66.7275308 67.3611039,66.5405325 67.2984744,66.3802483 C67.235845,66.2199641 67.1606896,66.0329659 67.0855343,65.8459676 C67.0855343,65.7791826 67.0103789,65.7524685 66.9602753,65.7524685 L66.8475423,65.7524685 C66.6436043,65.8369321 66.4657679,65.9803156 66.3339807,66.1665361 C66.1941969,66.3834745 66.0392717,66.5888644 65.8705226,66.7809588 L65.3319093,67.4087387 C65.1881683,67.5638128 65.054263,67.728914 64.9310807,67.9029483 C64.7001441,68.1720627 64.4867077,68.4576765 64.2922601,68.7577974 C64.1043717,69.0382948 63.9415351,69.2920781 63.8162762,69.5057904 C63.7236424,69.663176 63.5941223,69.7920824 63.4404994,69.8797868 C63.3050374,69.9554411 63.154976,69.9965887 63.0020932,70 L62.789153,70 C62.7141357,69.9875593 62.6419339,69.9603855 62.5762128,69.9198579 C62.2239145,69.7546414 61.9974466,69.3818998 62.0000217,68.9715097 C62.0000217,68.6242272 62.0000217,68.2368737 62.0000217,67.8094492 L62.0000217,65.0178326 C62.0000217,64.550337 62.0000217,64.1629835 62.0000217,63.8691291 C62.009771,63.6281568 62.1090029,63.4012152 62.275836,63.2383463 C62.4426691,63.0754775 62.6634015,62.9900578 62.8893601,63.000923 C63.1002326,63.0034958 63.3037892,63.0837148 63.4655512,63.2279923 C63.6340773,63.3858643 63.7262385,63.6168139 63.7160691,63.8557721 C63.7160691,64.2297686 63.7160691,64.603765 63.7160691,65.0044756 C63.7160691,65.4051861 63.7160691,65.8058966 63.7160691,66.2066071 L63.7160691,66.6340317 L63.8663798,66.4470334 L64.0292164,66.2600352 L64.4175191,65.8058966 C64.542778,65.6456124 64.6805628,65.4853282 64.8058217,65.3116869 L65.0688655,64.9777615 C65.315695,64.6699558 65.5976236,64.3962431 65.9081003,64.1629835 C66.2009532,63.9273714 66.5387592,63.7632204 66.8976459,63.6821308 L67.0479566,63.6821308 L67.2107932,63.6821308 C67.4718819,63.6849991 67.7273299,63.7634865 67.9498209,63.9092001 C68.2116876,64.1165871 68.4188076,64.3926657 68.5510637,64.7106212 C68.5510637,64.8976194 68.6763227,65.0846177 68.751478,65.2849729 L68.9518923,65.8326106 C68.9753734,65.9487708 69.0132857,66.0610704 69.0646253,66.1665361 C69.0646253,66.1665361 69.0646253,66.1665361 69.0646253,66.1665361 L69.1397807,66.1665361 L69.5155575,65.7658255 L69.9539637,65.3116869 L70.3422664,64.9109764 L70.7305691,64.5369799 C71.3394813,63.8922191 72.1331378,63.4831656 72.9852298,63.3749194 C73.7117316,63.3749194 74.2378191,63.9092001 74.4006557,64.9510475 C74.4926541,65.4046961 74.6140286,65.8509994 74.7639066,66.2867492 C74.8739408,66.6605114 75.0480773,67.0092479 75.2774682,67.3152395 C75.3930201,67.4691644 75.5685625,67.5578334 75.7534522,67.5556658 C75.916305,67.5577934 76.0779839,67.5260343 76.2294361,67.4621667 L76.9308861,67.2350974 L77.644862,67.0213852 C77.882854,66.9412431 78.1208459,66.887815 78.3337861,66.8343869 L78.8723995,66.7542448 L78.9851326,66.7542448 C79.1339858,66.7450189 79.2830622,66.7677286 79.4235388,66.8210299 C79.5435079,66.8640633 79.6542247,66.9321766 79.749212,67.0213852 C79.9128644,67.160096 80.0056859,67.372904 79.9997299,67.5957369 C79.9990486,67.7712441 79.9415248,67.9411106 79.8368933,68.0765895 C79.7531136,68.2116335 79.6470054,68.3293081 79.5237459,68.423872" id="Shape" fill="#35C0F0"></path>
                <path d="M89,67.5652982 C88.9998435,67.7221328 88.9616305,67.8762491 88.8890852,68.0126271 C88.82058,68.1602474 88.7135935,68.2836015 88.5809884,68.3678589 C88.1329971,68.6206382 87.6674184,68.8361701 87.1883909,69.0125388 C86.7184592,69.197088 86.2307005,69.325062 85.734174,69.3940841 L85.253543,69.3940841 C84.9329091,69.434626 84.6078383,69.3940629 84.3046049,69.2756735 C84.0410133,69.1149179 83.8171055,68.8894087 83.6514397,68.6178368 C83.5548066,68.4432763 83.4762914,68.257987 83.4172861,68.065254 C83.3490109,67.8578616 83.3115857,67.6403319 83.3063712,67.4205741 C83.2749392,67.4059289 83.2392124,67.4059289 83.2077803,67.4205741 C83.0003453,67.5633074 82.8026662,67.7215863 82.6162344,67.8942165 C82.369757,68.1047242 82.1232796,68.3415454 81.8521544,68.5915234 L81.3715234,68.9993821 C81.2236369,69.1397206 81.0757505,69.2712879 80.927864,69.3940841 C80.5173345,69.7586721 80.006998,69.9710618 79.4736471,69.9992938 C79.1210888,70.0108933 78.7775424,69.8792345 78.5123851,69.6309053 C78.1468733,69.2663973 77.9602596,68.741609 78.0071064,68.2099781 C78.034646,67.6627723 78.1734206,67.1285228 78.4137942,66.6443268 C78.6030684,66.2464291 78.8258137,65.8677128 79.0792832,65.5128478 C79.3381836,65.1603731 79.6137756,64.8222433 79.9049826,64.4997793 C80.2007556,64.1840177 80.4965285,63.8945696 80.7923014,63.6314349 C81.0880743,63.381457 81.3715234,63.1577925 81.6180008,62.9735983 C81.8644782,62.789404 82.2588421,62.5657395 82.653206,62.3420751 C83.0332516,62.1266208 83.4553774,62.0094509 83.8855932,62 C84.1338413,62.0044606 84.3796265,62.0533819 84.6127017,62.1447241 C84.8901853,62.2622279 85.1481701,62.4265913 85.3767817,62.6315232 C85.4826313,62.7182875 85.5672048,62.8311489 85.6232591,62.9604415 C85.6710487,63.0626384 85.6963397,63.1751394 85.6972024,63.2893599 C85.6982039,63.4463536 85.6599129,63.6007843 85.5862875,63.7366888 C85.5039309,63.8752461 85.3892715,63.988587 85.253543,64.0656071 C85.1124085,64.1562969 84.9499028,64.2019517 84.7852359,64.1971745 C84.6042959,64.1973072 84.4277672,64.137552 84.2799571,64.0261369 C84.1974379,63.9490101 84.1009624,63.8907953 83.9965081,63.8550994 C83.8900837,63.8414514 83.7825117,63.8414514 83.6760874,63.8550994 C83.2268223,63.8820606 82.7963607,64.0566906 82.4437002,64.3550553 C82.2218705,64.5129361 81.987717,64.7102871 81.7289157,64.9339515 C81.4701144,65.157616 81.2236369,65.4207507 80.9771595,65.6970421 C80.7333436,65.9782695 80.5030039,66.2724788 80.2870227,66.5785432 C80.0932892,66.8503076 79.9241071,67.1410546 79.7817439,67.4468876 C79.7444294,67.5253239 79.7194485,67.6097762 79.7078007,67.6968655 C79.6961934,67.7929503 79.6961934,67.8902288 79.7078007,67.9863136 C79.7078007,68.0784108 79.7078007,68.1310377 79.7078007,68.1441944 C79.8253964,68.11694 79.9326832,68.0527991 80.0158975,67.9600002 L80.2377272,67.7889626 L80.9032163,67.1969096 L81.6672963,66.5259162 C81.9260976,66.3022518 82.172575,66.091744 82.4313764,65.894393 C82.6435802,65.7176158 82.8658353,65.5550382 83.0968654,65.4075939 C83.3623894,65.2128707 83.6745516,65.1033063 83.9965081,65.0918323 C84.2190809,65.083302 84.4359049,65.1683344 84.6003778,65.3286535 C84.7716821,65.523069 84.8569024,65.7864307 84.8345313,66.0522738 L84.8345313,66.341722 C84.8345313,66.5259162 84.8345313,66.683797 84.8345313,66.8285211 C84.841737,66.9460573 84.8667073,67.0615748 84.9084746,67.1705962 C84.9375822,67.3150233 85.0113797,67.4447866 85.1179804,67.5389847 C85.2158614,67.6103421 85.3322308,67.6471521 85.4507249,67.6442386 L85.5246682,67.6442386 L86.0299469,67.525828 L86.6214927,67.3416337 L87.2007147,67.1179692 C87.367159,67.0543298 87.5279975,66.9750799 87.6813457,66.881148 C87.8065553,66.808762 87.9457372,66.768238 88.0880335,66.7627374 C88.3237902,66.7646499 88.5459612,66.8808224 88.6919032,67.078499 C88.7975663,67.2314711 88.8576824,67.4148391 88.8644374,67.6047684" id="Shape" fill="#35C0F0"></path>
                <path d="M97.674669,67.1091877 C97.5128711,67.2931587 97.283648,67.3964049 97.044458,67.3930462 C96.8669451,67.390142 96.6928838,67.3413808 96.5378178,67.2511169 C96.3590502,67.1540951 96.2189618,66.9941085 96.1423913,66.7995239 C96.0064634,66.5930814 95.8581785,66.3866389 95.6975365,66.1672937 C95.5509508,65.9497384 95.3763031,65.7543542 95.1785392,65.5866742 C94.9969845,65.421644 94.7979834,65.2787903 94.5853994,65.1608865 C94.3759418,65.0606449 94.1485213,65.0078757 93.9181172,65.0060546 C93.6901076,65.0072487 93.464134,65.0509433 93.250835,65.1350812 C92.999863,65.2321363 92.7561658,65.3485826 92.5217673,65.4834529 C92.2684407,65.6390585 92.0249197,65.8114468 91.7926997,65.9995592 C91.5693123,66.1720554 91.3586493,66.3618282 91.1624887,66.5672761 C91.0641039,66.6670944 90.9844725,66.7852509 90.9277042,66.9156478 C90.8810376,67.0209139 90.8557916,67.1351435 90.8535618,67.2511169 C90.8758969,67.4124527 90.9607999,67.5570948 91.0883462,67.6510993 C91.2966876,67.8103974 91.5312285,67.9284723 91.7803426,67.999471 L92.4846961,68.1414003 C92.7974066,68.1628018 93.1111236,68.1628018 93.4238341,68.1414003 C93.8375162,68.1366211 94.2503935,68.1021326 94.6595419,68.038179 C95.1115775,67.9601839 95.5576018,67.8480669 95.9941064,67.7027099 L96.092963,67.7027099 C96.2653573,67.6989692 96.4343282,67.7532557 96.5748891,67.8575418 C96.7100841,67.959827 96.816721,68.0978949 96.883816,68.2575242 C96.9036526,68.3770584 96.9036526,68.4992644 96.883816,68.6187986 C96.8820402,68.7820372 96.8300547,68.9403561 96.7355311,69.0703916 C96.6428937,69.2665212 96.4908697,69.4252571 96.3030333,69.5219846 C95.8258298,69.6968404 95.3332859,69.8221716 94.832541,69.8961616 C94.3820194,69.9607951 93.9279996,69.9952726 93.4732624,69.9993829 C93.0601177,70.004426 92.6471578,69.9785545 92.2375545,69.9219669 C91.9337684,69.8924421 91.6323398,69.8407045 91.3354878,69.767135 C90.6849115,69.6386945 90.0839741,69.315996 89.6054968,68.8381437 C89.226957,68.4495681 89.0095457,67.9214217 89,67.3672408 C89.0401746,66.707641 89.3131478,66.0870215 89.7661389,65.6253821 C90.022258,65.3371617 90.2990336,65.069733 90.5940631,64.8254174 C90.9267873,64.5479555 91.2824158,64.3018415 91.6567719,64.089966 C92.0281748,63.870934 92.4167672,63.6853253 92.8183372,63.5351517 C93.1743807,63.396437 93.5505036,63.3222548 93.9304743,63.3158065 C94.3600842,63.3008368 94.7860048,63.4031237 95.1661821,63.6125676 C95.4831905,63.7918509 95.7849735,63.9990446 96.0682488,64.2318952 C96.0682488,63.6254703 95.9693922,62.9416295 95.9199639,62.3481073 C95.8705356,61.754585 95.8087502,61.0578416 95.7469648,60.438514 C95.6851794,59.8191865 95.623394,59.2256643 95.5492515,58.6579473 C95.4751091,58.0902304 95.4256808,57.5612215 95.3638954,57.1096285 C95.3569322,57.0625981 95.3569322,57.0147297 95.3638954,56.9676993 L95.3638954,56.8902833 C95.3557339,56.6634255 95.4308795,56.4418817 95.5739657,56.2709558 C95.7081345,56.1367211 95.8747086,56.0430673 96.0558918,56 L96.1794625,56 L96.3030333,56 C96.4958608,56.0045866 96.6804362,56.0825942 96.8220306,56.2193452 C96.9906311,56.3897624 97.0920227,56.6199107 97.1062434,56.864478 C97.1803859,57.4063896 97.2668854,58.0773278 97.353385,58.8772925 C97.4398845,59.6772573 97.5387412,60.4901246 97.6128836,61.3546027 C97.6870261,62.2190807 97.7858827,63.0835587 97.8476681,63.9351341 C97.9094535,64.7867094 97.9588818,65.5608689 97.9959531,66.231807 L97.9959531,66.3608336 C98.021803,66.6639172 97.9229542,66.9641734 97.7240973,67.1866036" id="Shape" fill="#35C0F0"></path>
                <path d="M107,67.0000093 C106.99704,67.1511473 106.951792,67.2980281 106.869897,67.4223456 C106.778809,67.5659199 106.639373,67.6679848 106.479589,67.7080437 L106.183901,67.8198386 L105.829075,67.9688985 L105.001148,68.3042832 C104.693632,68.4160781 104.374289,68.5402946 104.031291,68.6396679 C103.688292,68.7390411 103.321639,68.8259927 102.954986,68.9005226 C102.564008,68.967752 102.168415,69.0009892 101.772233,68.9998959 C101.482901,69.0018272 101.193972,68.9768868 100.908823,68.9253659 C100.432218,68.8746705 99.986072,68.6557185 99.6432779,68.3042832 C99.217773,67.8730369 98.9857687,67.272915 99.0045914,66.652203 C98.9984695,66.5322131 98.9984695,66.4119649 99.0045914,66.291975 C98.998974,66.1802579 98.998974,66.0683074 99.0045914,65.9565903 C99.1038584,65.3114689 99.2994474,64.6868429 99.5841402,64.1057636 C99.8182038,63.6264732 100.091252,63.1693132 100.40024,62.7393815 C100.789139,62.16788 101.289003,61.6894771 101.866853,61.3357344 C102.04931,61.2306337 102.244175,61.1512783 102.446402,61.099723 C102.666121,61.0362877 102.892714,61.0028876 103.120571,61.0003498 C103.416119,60.9939386 103.707327,61.0757821 103.960325,61.2363612 C104.204867,61.3788195 104.393437,61.6076686 104.492564,61.8822873 C104.596891,62.1546153 104.649138,62.4458532 104.646322,62.7393815 C104.651297,63.0372009 104.615447,63.3342228 104.539874,63.6213191 C104.426479,64.0200766 104.232874,64.388612 103.972153,64.7020031 C103.693737,65.0559642 103.371544,65.3692767 103.014123,65.6336272 C102.64638,65.9053207 102.249382,66.1304687 101.83137,66.3043966 C101.453598,66.4750456 101.05584,66.5920124 100.648618,66.652203 C100.643183,66.8187866 100.703035,66.9804222 100.814203,67.0993826 C100.924922,67.2177329 101.071143,67.292322 101.228167,67.3105507 C101.433014,67.3646766 101.643841,67.3897428 101.855026,67.3850807 C102.430162,67.3789988 103.000848,67.2784081 103.546362,67.0869609 C104.125911,66.8882144 104.65815,66.7018896 105.143078,66.5155648 C105.299937,66.4671058 105.453959,66.4090386 105.604352,66.3416616 L105.99466,66.1926017 L106.101108,66.1926017 L106.243038,66.1926017 C106.384219,66.1897406 106.522037,66.2379877 106.633347,66.3292399 C106.742328,66.4231181 106.834455,66.5366992 106.90538,66.6646246 C106.957476,66.785356 106.981786,66.917269 106.976345,67.049696 M103.191536,62.9132847 C103.196746,62.87206 103.196746,62.8302929 103.191536,62.7890681 L103.191536,62.6896949 C103.145799,62.6715754 103.095343,62.6715754 103.049606,62.6896949 C102.987543,62.6728655 102.922428,62.6728655 102.860365,62.6896949 L102.659297,62.7642248 C102.485092,62.8832373 102.326101,63.0251683 102.186196,63.1865611 C101.975432,63.4149102 101.781679,63.6599233 101.606647,63.9194388 C101.426724,64.2041581 101.276065,64.508119 101.157201,64.8262196 C101.378764,64.748058 101.595947,64.6568206 101.807715,64.5529432 C102.019445,64.4439843 102.221339,64.3151002 102.410919,64.1678719 C102.591295,64.0379898 102.754375,63.8834274 102.895848,63.7082706 C103.019247,63.5649338 103.112003,63.3955164 103.167881,63.2114044 C103.18015,63.1041357 103.18015,62.9957102 103.167881,62.8884414" id="Shape" fill="#35C0F0"></path>
                <path d="M120.985425,54.8263532 C121.004858,54.9356818 121.004858,55.0475309 120.985425,55.1568595 C120.933911,55.2882823 120.864824,55.4122686 120.780012,55.5255012 C120.529472,55.8188538 120.254633,56.0909836 119.958361,56.3390552 C119.598888,56.6568498 119.188063,57.0127797 118.67453,57.3941331 L117.056904,58.8051409 C116.550254,59.2430765 116.074147,59.7144916 115.631852,60.2161487 C115.231986,60.5653871 114.979841,61.0510899 114.925746,61.5763094 C114.971282,62.0259828 115.198087,62.4384576 115.554823,62.7203698 C115.734559,62.8983348 115.95281,63.1144351 116.235253,63.3686707 L117.082581,64.1440894 L117.775849,64.7415432 L118.315058,65.2373027 C119.0579,65.8892754 119.517824,66.8000585 119.598888,67.7796591 C119.602292,68.1195895 119.536809,68.4567437 119.406314,68.7711781 C119.272395,69.087397 119.099938,69.3862213 118.892782,69.6610028 C118.474052,70.193186 117.981302,70.6639606 117.429215,71.0592988 C116.902844,71.4279405 116.453504,71.7075997 116.145385,71.9109882 C116.070211,71.9550786 115.987551,71.9852322 115.901457,71.9999707 L115.670367,71.9999707 C115.515367,72.0013044 115.363454,71.9570643 115.233865,71.8728529 C115.08909,71.7879765 114.976362,71.6585008 114.912907,71.5042112 C114.825976,71.3760378 114.777054,71.2263121 114.771686,71.0720106 C114.775621,70.9290416 114.815322,70.7892732 114.887231,70.6652336 C114.966018,70.5150523 115.092263,70.3945156 115.246703,70.3220155 C115.580499,70.1440505 115.965648,69.9025267 116.414989,69.6101557 C116.843573,69.3471992 117.218164,69.0064888 117.519083,68.6059249 C117.646382,68.4688335 117.746545,68.3092895 117.814364,68.135589 C117.833044,67.9836082 117.833044,67.8299456 117.814364,67.6779648 C117.797882,67.4563498 117.736769,67.2402425 117.634628,67.0423757 C117.49033,66.7773296 117.303936,66.5369764 117.082581,66.3305159 L116.299444,65.5932326 L115.323733,64.8940845 L114.784524,64.4110368 L114.28383,64.0042598 C113.526925,63.4402429 113.057705,62.576095 113,61.6398683 C113.081064,60.6602678 113.540989,59.7494847 114.28383,59.0975119 C114.815619,58.5266884 115.37698,57.9835881 115.965648,57.4704038 C116.569049,56.936509 117.121096,56.4534613 117.647466,56.0212607 L118.30222,55.4365187 L118.841428,54.9916063 C118.899111,54.5652538 119.198591,54.2094189 119.611727,54.076358 C119.733228,54.0242834 119.864493,53.9982891 119.996876,54.0000873 C120.251,54.0013066 120.496526,54.091346 120.690144,54.254323 C120.86273,54.3983065 120.953733,54.6164577 120.934072,54.8390649" id="Shape" fill="#35C0F0"></path>
                <path d="M128.864274,67.525747 C128.713031,67.6989927 128.493995,67.8030348 128.26014,67.8127099 C128.016836,67.8463692 127.777389,67.9024205 127.545043,67.9801049 C127.225932,68.0682586 126.912954,68.1760892 126.608019,68.3029381 L125.695653,68.6138146 L124.894251,68.8529503 C124.568439,68.9391667 124.233174,68.987335 123.895581,68.9964317 C123.47797,69.0240165 123.065981,68.8908357 122.748959,68.6257714 C122.411586,68.3003855 122.183766,67.8835209 122.095508,67.4300927 C122.051686,67.2816964 122.022783,67.1295338 122.009203,66.9757348 C121.996932,66.8045608 121.996932,66.632767 122.009203,66.461593 L122.009203,66.1148462 C122.009203,66.0072351 122.009203,65.9235376 122.009203,65.8398401 C122.009203,65.564834 122.009203,65.3017847 122.120167,65.0387354 C122.23113,64.7756861 122.243459,64.5365504 122.317435,64.2974146 C122.259997,64.2356614 122.233008,64.1527799 122.243459,64.0702357 C122.235813,64.0347486 122.235813,63.9981117 122.243459,63.9626246 C122.237941,63.9309644 122.237941,63.8986305 122.243459,63.8669703 C122.315975,63.7068945 122.398318,63.5511772 122.490045,63.4006556 C122.567556,63.2517876 122.667261,63.1148065 122.785947,62.9941249 C122.953694,62.8731026 123.156377,62.8061887 123.365422,62.8028163 C123.496216,62.8044465 123.625655,62.8287423 123.74763,62.874557 C123.903041,62.9233824 124.043066,63.009797 124.154495,63.1256495 C124.247761,63.2281698 124.300227,63.3596107 124.302446,63.4963099 C124.321049,63.587091 124.321049,63.6805349 124.302446,63.771316 C124.143006,64.0745169 124.010998,64.3905646 123.90791,64.7159022 C123.784781,65.1043938 123.71027,65.5058351 123.685983,65.9115808 L123.685983,66.2463708 C123.677747,66.4955322 123.702609,66.7446855 123.759959,66.9876916 C123.791433,67.2064527 123.988539,67.3666067 124.216142,67.358352 L124.364093,67.358352 L124.536702,67.358352 C124.743415,67.3225749 124.945836,67.2664875 125.140836,67.190957 L125.855934,66.9279077 C126.262799,66.7605126 126.681994,66.6050744 127.08886,66.4735498 C127.427421,66.344874 127.785822,66.272126 128.149177,66.2583276 C128.387736,66.2420283 128.620413,66.334942 128.777969,66.5094201 C128.913941,66.6678164 128.991981,66.8654311 128.999896,67.0713891 C129.002876,67.2492898 128.94184,67.4226375 128.827286,67.5616173 M126.127177,60.1484097 C126.126226,60.3330142 126.088549,60.5157061 126.016214,60.6864651 C125.931382,60.8608814 125.799273,61.0096638 125.634007,61.1169094 C125.430771,61.2649719 125.185313,61.3484957 124.931239,61.3560451 C124.775734,61.3502849 124.621983,61.3220757 124.475056,61.2723476 C124.308322,61.2199976 124.159242,61.1249901 124.043532,60.9973415 C123.818719,60.7775893 123.690549,60.4818464 123.685983,60.1723233 C123.690163,59.9969583 123.736609,59.8249763 123.821605,59.6701382 C123.913747,59.4902602 124.049046,59.3344467 124.216142,59.2157803 C124.422958,59.0684593 124.674755,58.9926762 124.931239,59.0005582 C125.182642,59.0011354 125.427856,59.0762319 125.634007,59.2157803 C125.928353,59.441342 126.100789,59.7845982 126.102519,60.1484097" id="Shape" fill="#35C0F0"></path>
                <path d="M146.489267,68.3836189 C146.359488,68.5014068 146.197994,68.5716169 146.028368,68.5839967 C145.975136,68.5976209 145.919662,68.5976209 145.86643,68.5839967 C145.86643,68.5839967 145.86643,68.5839967 145.86643,68.5839967 L145.75432,68.5839967 L145.405531,68.6775064 L144.919719,68.7843746 L144.38408,68.9179598 L143.860897,69.078262 C143.462934,69.2429046 143.041624,69.3332667 142.615224,69.3454325 C142.308849,69.3471788 142.004801,69.288307 141.71834,69.1717717 C141.417221,69.0390686 141.151757,68.8278526 140.946023,68.5572797 C140.641928,68.1968981 140.40889,67.7743243 140.260903,67.3149372 C140.076448,66.8153643 139.926562,66.3018982 139.812461,65.7787073 C139.812461,65.591688 139.675437,65.4848198 139.600696,65.4848198 C139.266587,65.5626682 138.957346,65.7330882 138.703812,65.9790851 C138.571965,66.0708943 138.447017,66.173623 138.33011,66.2863311 C138.18063,66.4332748 137.993779,66.6202941 137.806928,66.8340304 C137.620077,67.0477668 137.408312,67.2615031 137.209005,67.5019565 C137.009697,67.7424099 136.81039,67.9695048 136.623539,68.2099581 C136.526233,68.3522968 136.397938,68.4669497 136.249837,68.5439212 C136.09897,68.6244129 135.932525,68.6656039 135.764024,68.6641479 C135.590036,68.6658565 135.418525,68.6198745 135.265755,68.5305627 C135.104874,68.4489803 134.973537,68.3128301 134.892054,68.1431655 C134.798266,67.9453031 134.719129,67.7398394 134.655376,67.5286736 C134.580635,67.3149372 134.518352,67.1012009 134.456068,66.900823 C134.456068,66.7271623 134.331501,66.540143 134.269217,66.3798407 C134.206934,66.2195385 134.132193,66.0325192 134.06991,65.8454999 C134.043166,65.7902446 133.990888,65.7545683 133.932886,65.7519902 L133.820775,65.7519902 C133.617963,65.8364633 133.441109,65.9798629 133.310049,66.1661044 C133.171037,66.3830673 133.016968,66.5884803 132.84915,66.7805964 L132.313511,67.4084469 C132.176487,67.5687491 132.039463,67.7290514 131.914896,67.9027121 C131.685234,68.1718568 131.472977,68.4575028 131.279603,68.7576575 C131.092752,69.0381865 130.930814,69.2919984 130.806247,69.5057347 C130.714125,69.663138 130.58532,69.792059 130.432545,69.8797733 C130.297831,69.9554361 130.148598,69.9965883 129.99656,70 L129.784795,70 C129.710192,69.9875579 129.638389,69.960381 129.573031,69.9198489 C129.222678,69.7546137 128.997461,69.3818302 129.000022,68.9713939 C129.000022,68.6240723 129.000022,68.2366752 129.000022,67.8092025 C129.000022,67.3950883 129.000022,66.9676157 129.000022,66.5535015 C129.000022,66.1393873 129.000022,65.4981783 129.000022,65.0172715 C129.000022,64.5363648 129.000022,64.1623262 129.000022,63.8684387 C129.033036,63.3730605 129.4214,62.9917764 129.884449,63.0001348 C130.094157,63.0027079 130.29659,63.082936 130.457459,63.2272297 C130.629852,63.3813469 130.722568,63.6150031 130.706593,63.8550802 C130.706593,64.2291188 130.706593,64.6031574 130.706593,65.003913 C130.706593,65.4046687 130.706593,65.8054243 130.706593,66.2061799 L130.706593,66.6336526 C130.748351,66.5681241 130.794127,66.5056465 130.843617,66.4466333 L131.018011,66.259614 L131.391713,65.8054243 L131.790329,65.311159 L132.039463,64.977196 C132.28493,64.6693556 132.565301,64.395612 132.874064,64.1623262 C133.1653,63.9266876 133.50124,63.7625181 133.858145,63.6814194 L134.007626,63.6814194 L134.169563,63.6814194 C134.429489,63.6822205 134.684038,63.7608748 134.90451,63.9085143 C135.164931,64.1159246 135.370907,64.3920343 135.502433,64.7100255 C135.502433,64.8970448 135.627,65.0840641 135.701741,65.284442 L135.901048,65.8321413 C135.9244,65.9483146 135.962103,66.0606268 136.013159,66.1661044 C136.013159,66.1661044 136.013159,66.1661044 136.013159,66.1661044 L136.087899,66.1661044 L136.461601,65.7653487 L136.897587,65.311159 L137.333572,64.8836863 L137.707274,64.5096477 C138.312824,63.8648143 139.102098,63.4557148 139.949485,63.3474564 C140.671975,63.3474564 141.195158,63.8817972 141.357095,64.9237619 C141.448585,65.3774615 141.56929,65.8238152 141.71834,66.259614 C141.827767,66.6334183 142.000942,66.9821941 142.229066,67.2882202 C142.345135,67.4405874 142.518957,67.5288849 142.702422,67.5286736 C142.864375,67.5308014 143.025161,67.4990387 143.175777,67.4351639 L143.873354,67.208069 L144.583387,66.9943327 L145.268507,66.8073134 L145.816603,66.7271623 L145.978541,66.7271623 C146.126572,66.7179353 146.274825,66.7406475 146.414526,66.7939549 C146.533833,66.8369931 146.643938,66.9051141 146.738401,66.9943327 C146.904269,67.1316577 147.000986,67.3440338 146.999992,67.5687491 C146.994806,67.7457109 146.933259,67.9154301 146.825598,68.0496559 C146.742281,68.1847151 146.636759,68.302403 146.51418,68.3969774" id="Shape" fill="#35C0F0"></path>
                <path d="M153.555883,66.6114137 C153.280463,66.9870522 152.901336,67.2861723 152.458654,67.4770963 L152.328031,67.4770963 L152.158222,67.5624453 L151.936164,67.6477943 C151.858512,67.6612273 151.783587,67.6859108 151.714105,67.7209506 L151.426736,67.8550704 C151.274059,67.9287604 151.1258,68.0101659 150.982619,68.0989246 L150.538502,68.3305862 L149.950701,68.5866331 C149.753542,68.6736921 149.547979,68.7430951 149.336775,68.7939093 C149.150683,68.848383 148.95705,68.8771374 148.762035,68.8792583 C148.536473,68.8749088 148.315962,68.8160999 148.121985,68.7085603 C147.967046,68.6156955 147.84803,68.4789656 147.782366,68.3183935 C147.730117,69.0418278 147.69093,69.7490051 147.664806,70.4399255 C147.638681,71.1308459 147.638681,71.7892523 147.664806,72.4151449 L147.664806,73.0735514 C147.763472,73.1406439 147.843985,73.2283223 147.899926,73.3295984 C147.951788,73.4424888 147.986943,73.5614439 148.004425,73.683187 L148.004425,73.7563433 C148.000901,73.9093903 147.974522,74.0612303 147.926051,74.2074737 C147.870728,74.3801383 147.767011,74.5358803 147.625619,74.658604 C147.421438,74.8696118 147.133347,74.9930471 146.828822,75 C146.627341,74.9958726 146.433561,74.9269656 146.280207,74.8049166 C146.095786,74.651871 145.983195,74.4372992 145.966713,74.2074737 C145.956902,74.0857185 145.956902,73.9634475 145.966713,73.8416923 L145.966713,72.70777 C145.966713,71.1471028 145.966713,69.6230137 146.136522,68.1111174 C146.306331,66.599221 146.35858,65.2336372 146.463078,64.0021732 L146.463078,63.8436679 C146.457054,63.7869076 146.457054,63.7297303 146.463078,63.67297 L145.927526,63.67297 C145.862799,63.6845029 145.796319,63.6845029 145.731592,63.67297 C145.51789,63.6097385 145.3277,63.4913861 145.182977,63.331574 C145.072816,63.2122998 145.008458,63.0621156 145.000106,62.9048291 C144.996504,62.6758583 145.085068,62.4539593 145.248289,62.2830007 C145.435698,62.0858048 145.711293,61.9820028 145.992837,62.0025683 C147.193094,62.0481575 148.384447,62.215782 149.545771,62.5024695 C150.488604,62.7375161 151.406708,63.0517445 152.288844,63.4413084 C152.807586,63.6316478 153.259709,63.9523872 153.59507,64.3679546 C153.846783,64.6958451 153.987791,65.0864633 154,65.4896841 C153.9967,65.8829842 153.864511,66.2659184 153.621195,66.5870283 M148.030549,65.7335384 C148.030549,66.3797522 147.939113,67.0259659 147.886864,67.6843724 C147.977367,67.5306366 148.086976,67.3873992 148.213421,67.2576275 C148.411024,67.1136124 148.655027,67.03626 148.90572,67.0381586 L149.062467,67.0381586 C149.122677,67.0255593 149.185129,67.0255593 149.245339,67.0381586 C149.412572,66.9923947 149.57448,66.9311259 149.728642,66.855268 L150.355631,66.5382574 C150.441521,66.4741816 150.538784,66.4246608 150.643,66.3919449 L151.04793,66.2456323 L151.57042,66.0139708 C151.910039,65.8188874 152.079848,65.6359967 152.079848,65.4409133 C152.079848,65.2458299 151.85779,64.9897829 151.387549,64.7946995 C151.206218,64.7020737 151.018592,64.6206151 150.825872,64.5508453 C150.590751,64.4533036 150.316444,64.3679546 150.029074,64.2704129 L149.127779,64.0021732 C148.826809,63.9224401 148.521613,63.8573249 148.213421,63.8070898 C148.213421,64.4167254 148.082798,65.0263611 148.030549,65.6969603" id="Shape" fill="#35C0F0"></path>
                <path d="M162.999952,67.1312993 C163.001832,67.299597 162.948068,67.463437 162.847699,67.5952677 C162.734018,67.7463469 162.584719,67.8641331 162.414364,67.9371392 L162.2504,68.0103973 L162.086435,68.0836555 L161.266612,68.3644785 C160.973818,68.4743657 160.645889,68.5720433 160.306248,68.6697208 L159.275613,68.901705 C158.935254,68.9639471 158.590525,68.9966186 158.244979,68.9993826 C157.778606,69.0078438 157.314541,68.9292788 156.874703,68.7673984 C156.537478,68.6196858 156.234114,68.3991347 155.98461,68.1202846 C155.735945,67.8284671 155.537803,67.4938295 155.399022,67.1312993 C155.253086,66.7377819 155.150917,66.3281161 155.094516,65.9103299 C155.02571,65.3925721 154.99439,64.870149 155.000822,64.347489 L155.000822,64.2131823 C155.004004,63.6975975 155.047087,63.1831208 155.129651,62.6747608 C155.223045,62.1552933 155.344256,61.6416828 155.492716,61.1363393 C155.637904,60.6644108 155.813994,60.2034288 156.019745,59.7566439 C156.189083,59.3658351 156.388851,58.9901476 156.617044,58.633352 C156.894265,58.1740247 157.237969,57.7621656 157.635967,57.4123825 C157.917607,57.1699702 158.266707,57.0286749 158.631467,57.0094626 C158.697282,56.9968458 158.764752,56.9968458 158.830567,57.0094626 C159.236618,57.0765755 159.586051,57.3452385 159.767507,57.7298346 C160.049947,58.326123 160.198154,58.9817364 160.200842,59.6467566 C160.207319,59.7239373 160.207319,59.8015601 160.200842,59.8787408 L160.200842,60.110725 C160.196727,60.7700318 160.137949,61.4277337 160.025166,62.0764858 C159.924236,62.7366798 159.743204,63.3808179 159.486425,63.9934078 C159.229037,64.5965407 158.911042,65.1695283 158.537773,65.7027651 C158.162996,66.2155722 157.811644,66.6795406 157.460291,67.0702509 L157.682814,67.1923478 L157.928761,67.2900254 L158.139573,67.2900254 L158.315249,67.2900254 C158.594421,67.2895268 158.872894,67.2609045 159.146784,67.2045575 C159.439578,67.2045575 159.744084,67.0824605 160.060301,66.9969927 L160.98553,66.7161697 L161.828777,66.4353467 C161.927271,66.3855872 162.035554,66.3605013 162.144994,66.3620886 C162.482954,66.3502011 162.78405,66.5830927 162.871123,66.9237345 C162.918703,67.0133335 162.942931,67.1143666 162.941394,67.2167672 M158.315249,59.10953 C158.229178,59.1282597 158.151164,59.1753459 158.092726,59.2438367 C157.96921,59.3826201 157.859351,59.5339631 157.764797,59.6955954 C157.597742,59.9568073 157.456481,60.2349784 157.343173,60.5258546 C157.194749,60.8926401 157.065726,61.2676335 156.956685,61.6491465 C156.839677,62.0508086 156.741958,62.4583046 156.663892,62.870116 C156.583743,63.2927699 156.536741,63.721526 156.52335,64.1521339 L156.52335,64.3352793 C156.516516,64.7133737 156.555872,65.0908374 156.640468,65.4585712 C156.909838,65.1166997 157.167497,64.7626186 157.401732,64.3963278 C157.645471,64.0344951 157.849737,63.6454498 158.010744,63.2364068 C158.090595,63.0433639 158.15332,62.8431025 158.198132,62.6381318 C158.198132,62.3939379 158.315249,62.1253246 158.362096,61.8445016 C158.419115,61.5584902 158.458237,61.2689168 158.479214,60.9776133 C158.49567,60.7052 158.49567,60.4319771 158.479214,60.1595638 L158.479214,59.9275796 C158.479214,59.4147724 158.373808,59.1339494 158.268402,59.072901" id="Shape" fill="#35C0F0"></path>
                <path d="M168.963719,67.0000093 C168.960755,67.1511473 168.915445,67.2980281 168.833436,67.4223456 C168.7369,67.5658771 168.593693,67.6674778 168.430742,67.7080437 L168.134644,67.8198386 L167.779326,67.9688985 L166.950251,68.3042832 C166.642309,68.4160781 166.322523,68.5402946 165.979049,68.6396679 C165.635575,68.7390411 165.268413,68.8259927 164.901251,68.9005226 C164.529245,68.9644322 164.153035,68.9976584 163.776078,68.9998959 C163.486344,69.0018272 163.197015,68.9768868 162.911471,68.9253659 C162.434204,68.8746705 161.98744,68.6557185 161.64417,68.3042832 C161.218075,67.8730369 160.985749,67.272915 161.004598,66.652203 C160.998467,66.5322131 160.998467,66.4119649 161.004598,66.291975 C161.018602,66.1791495 161.038371,66.0671936 161.063817,65.9565903 C161.158137,65.3101816 161.354262,64.6847139 161.64417,64.1057636 C161.878558,63.6264732 162.151985,63.1693132 162.461401,62.7393815 C162.847411,62.1691965 163.343833,61.690888 163.918205,61.3357344 C164.100915,61.2306337 164.29605,61.1512783 164.498557,61.099723 C164.718581,61.0362877 164.945488,61.0028876 165.173661,61.0003498 C165.46962,60.9939386 165.761231,61.0757821 166.014581,61.2363612 C166.259461,61.3788195 166.448293,61.6076686 166.547557,61.8822873 C166.652029,62.1546153 166.704348,62.4458532 166.701529,62.7393815 C166.70651,63.0372009 166.670611,63.3342228 166.594933,63.6213191 C166.481381,64.0200766 166.287507,64.388612 166.026424,64.7020031 C165.747622,65.0559642 165.424982,65.3692767 165.067066,65.6336272 C164.699841,65.9070588 164.302086,66.1323235 163.882673,66.3043966 C163.505166,66.4773791 163.106547,66.5944367 162.69828,66.652203 C162.692838,66.8187866 162.752773,66.9804222 162.864095,67.0993826 C162.974968,67.2177329 163.121391,67.292322 163.278632,67.3105507 C163.472249,67.361463 163.671224,67.3865048 163.870829,67.3850807 C164.446763,67.3789988 165.01824,67.2784081 165.564511,67.0869609 C166.144864,66.8882144 166.677841,66.7018896 167.163442,66.5155648 C167.320518,66.4671058 167.474754,66.4090386 167.625355,66.3416616 L168.016205,66.1926017 L168.1228,66.1926017 L168.264927,66.1926017 C168.405874,66.1926017 168.543019,66.2405466 168.655777,66.3292399 C168.76491,66.4231181 168.857164,66.5366992 168.928188,66.6646246 C168.980356,66.785356 169.0047,66.917269 168.999251,67.049696 M165.102598,62.9132847 C165.102598,62.9132847 165.102598,62.8387548 165.102598,62.7890681 L165.102598,62.6896949 C165.056797,62.6715754 165.006271,62.6715754 164.960471,62.6896949 C164.898322,62.6728655 164.833116,62.6728655 164.770968,62.6896949 L164.569621,62.7642248 C164.395174,62.8832373 164.235963,63.0251683 164.095864,63.1865611 C163.884807,63.4149102 163.690786,63.6599233 163.515511,63.9194388 C163.33083,64.2013441 163.179687,64.505861 163.065442,64.8262196 C163.287311,64.748058 163.504796,64.6568206 163.716858,64.5529432 C163.928881,64.4439843 164.131055,64.3151002 164.320898,64.1678719 C164.501525,64.0379898 164.664831,63.8834274 164.8065,63.7082706 C164.93007,63.5649338 165.022954,63.3955164 165.07891,63.2114044 C165.091196,63.1041357 165.091196,62.9957102 165.07891,62.8884414" id="Shape" fill="#35C0F0"></path>
                <path d="M173.251236,67.3907204 C173.311345,67.5490382 173.341151,67.7146108 173.339506,67.8810478 C173.361938,68.2110411 173.204419,68.5313325 172.912869,68.7485501 C172.714891,68.9025226 172.459506,68.9916047 172.191999,69 C172.028081,68.9980576 171.866929,68.9636275 171.721226,68.89942 C171.556599,68.8355993 171.414531,68.7358687 171.309301,68.6102526 C171.10687,68.4020178 170.997401,68.139184 171.000356,67.8684753 C170.991222,67.5280635 171.158063,67.2015056 171.456417,66.975828 C171.65964,66.8226597 171.921035,66.7377727 172.191999,66.7369506 C172.322267,66.7082061 172.458944,66.7082061 172.589213,66.7369506 C172.710771,66.7823178 172.824592,66.841526 172.92758,66.9129655 C173.054646,67.0298991 173.154501,67.1664363 173.221813,67.3152854 M173.883836,57.8230503 C173.883836,58.2379427 173.883836,58.6905526 173.795567,59.2185974 C173.707297,59.7466423 173.795567,60.2746872 173.692585,60.827877 C173.589604,61.3810669 173.604315,61.9468293 173.56018,62.5125916 C173.516046,63.078354 173.442487,63.6063988 173.383641,64.1092987 C173.387295,64.3266916 173.286223,64.5358104 173.10412,64.6876336 C172.945488,64.8072161 172.741881,64.8741398 172.530366,64.876221 C172.336444,64.9140866 172.133086,64.8918059 171.956612,64.8133585 C171.776047,64.6675762 171.683842,64.4589934 171.706515,64.2475962 L171.706515,64.1595887 C171.706515,63.4806739 171.838919,62.7514691 171.883054,61.9845468 C171.927189,61.2176244 171.986036,60.4507021 172.030171,59.7214973 C172.074306,58.9922925 172.103729,58.5774001 172.147864,58.0745002 C172.191999,57.5716004 172.221422,57.156708 172.265557,56.8172505 C172.251224,56.58717 172.352992,56.3628768 172.545078,56.2011982 C172.708251,56.0701694 172.924361,55.9980964 173.148255,56.0000382 C173.33961,56.0016077 173.523328,56.0644096 173.663162,56.1760532 C173.83398,56.3282628 173.946823,56.5211327 173.986818,56.7292431 C174.004394,56.8545194 174.004394,56.9811416 173.986818,57.106418 L173.986818,57.4584479 C174.000183,57.6374874 173.954298,57.8161259 173.854413,57.9739203" id="Shape" fill="#35C0F0"></path>
            </g>
        </g>
    </g>
</svg>